<svg xmlns="http://www.w3.org/2000/svg" xmlns:xlink="http://www.w3.org/1999/xlink" width="192.144" height="191.797" viewBox="0 0 192.144 191.797"><defs><style>.a{fill:none;}.b{fill:#9c070b;}.c,.m{fill:#541218;}.d{fill:#426d79;}.e{fill:#11333a;}.f{fill:#81c792;}.g{fill:#c8e3bd;}.h{fill:#5d7a57;}.h,.m{opacity:0.3;}.i{fill:#bf502f;}.j{fill:#ae4118;}.k{fill:#45030b;}.l{fill:#992324;}.n{fill:#fff;}.o{fill:#ee9c20;}.p{clip-path:url(#a);}.q{fill:#f4eeda;}</style><clipPath id="a"><path class="a" d="M203.1,357.642a9.1,9.1,0,1,1-9.1-9.1A9.1,9.1,0,0,1,203.1,357.642Z"/></clipPath></defs><g transform="translate(-66.973 -222.502)"><path class="b" d="M5,0H136.229a5,5,0,0,1,5,5V107.482a5,5,0,0,1-5,5H5a5,5,0,0,1-5-5V5A5,5,0,0,1,5,0Z" transform="translate(89.181 301.817)"/><path class="c" d="M5,0H136.23a5,5,0,0,1,5,5V107.482a5,5,0,0,1-5,5H5a5,5,0,0,1-5-5V5A5,5,0,0,1,5,0Z" transform="translate(84.182 301.817)"/><path class="d" d="M5,0h50.27a5,5,0,0,1,5,5V81.283a5,5,0,0,1-5,5H5a5,5,0,0,1-5-5V5A5,5,0,0,1,5,0Z" transform="translate(104.499 226.262)"/><rect class="e" width="13.331" height="86.283" transform="translate(144.239 226.262)"/><rect class="f" width="121.159" height="65.552" transform="matrix(0.72, -0.694, 0.694, 0.72, 126.385, 334.645)"/><rect class="g" width="110.636" height="55.875" transform="matrix(0.72, -0.694, 0.694, 0.72, 133.531, 334.479)"/><path class="f" d="M140.208,321.237,126.34,334.6,139.7,348.467A19.258,19.258,0,0,0,140.208,321.237Z"/><path class="f" d="M199.545,264.064,213.413,250.7l13.362,13.866A19.258,19.258,0,0,1,199.545,264.064Z"/><path class="f" d="M245.1,311.338l13.868-13.361L245.6,284.109A19.256,19.256,0,0,0,245.1,311.338Z"/><path class="f" d="M185.759,368.511l-13.868,13.364-13.36-13.866A19.254,19.254,0,0,1,185.759,368.511Z"/><path class="f" d="M210.206,299.377c12.566,13.042,14.933,31.147,5.288,40.441s-27.653,6.255-40.217-6.785-14.934-31.149-5.291-40.443S197.638,286.334,210.206,299.377Z"/><path class="h" d="M126.34,334.6l132.624-36.622-87.073,83.9Z"/><rect class="f" width="121.159" height="65.552" transform="translate(124.097 327.893) rotate(-60.443)"/><rect class="g" width="110.636" height="55.876" transform="translate(130.901 325.704) rotate(-60.443)"/><path class="f" d="M133.541,311.111l-9.5,16.751,16.751,9.5A19.257,19.257,0,0,0,133.541,311.111Z"/><path class="f" d="M174.189,239.434l9.5-16.751,16.751,9.5A19.257,19.257,0,0,1,174.189,239.434Z"/><path class="f" d="M231.294,271.818l9.5-16.752-16.752-9.5A19.258,19.258,0,0,0,231.294,271.818Z"/><path class="f" d="M190.646,343.495l-9.5,16.754-16.751-9.5A19.256,19.256,0,0,1,190.646,343.495Z"/><path class="f" d="M194.442,270.263C210.2,279.2,217.61,295.884,211,307.534s-24.733,13.855-40.487,4.921-23.169-25.621-16.562-37.272S178.687,261.328,194.442,270.263Z"/><path class="h" d="M124.041,327.862l116.753-72.8L181.147,360.249Z"/><rect class="f" width="121.159" height="65.553" transform="translate(109.384 361.59) rotate(-82.469)"/><rect class="g" width="110.637" height="55.875" transform="translate(114.872 357.009) rotate(-82.47)"/><path class="f" d="M111.845,342.491l-2.524,19.091,19.092,2.523A19.257,19.257,0,0,0,111.845,342.491Z"/><path class="f" d="M122.643,260.8l2.525-19.092,19.091,2.524A19.259,19.259,0,0,1,122.643,260.8Z"/><path class="f" d="M187.726,269.4l2.526-19.091-19.093-2.525A19.259,19.259,0,0,0,187.726,269.4Z"/><path class="f" d="M176.928,351.093,174.4,370.186l-19.091-2.526A19.257,19.257,0,0,1,176.928,351.093Z"/><path class="f" d="M152.981,281.784c17.954,2.372,31.087,15.061,29.331,28.34s-17.733,22.119-35.687,19.746-31.088-15.062-29.333-28.341S135.025,279.409,152.981,281.784Z"/><path class="h" d="M109.321,361.582l80.931-111.269L174.405,370.186Z"/><path class="i" d="M154.42,315.526a5,5,0,0,1-2.4,6.651l-45.5,21.361a5,5,0,0,1-6.65-2.4L67.448,272.084a5,5,0,0,1,2.4-6.65l45.5-21.362a5,5,0,0,1,6.65,2.4Z"/><path class="j" d="M67.5,272.084,99.92,341.138a5,5,0,0,0,6.65,2.4l45.5-21.361a4.985,4.985,0,0,0,2.764-3.505l-85.7-52.787A5,5,0,0,0,67.5,272.084Z"/><rect class="k" width="13.331" height="86.283" transform="translate(101.025 250.798) rotate(-25.144)"/><path class="l" d="M5,0H136.23a5,5,0,0,1,5,5V107.482a5,5,0,0,1-5,5H5a5,5,0,0,1-5-5V5A5,5,0,0,1,5,0Z" transform="translate(79.689 301.817)"/><path class="m" d="M84.228,301.817a5,5,0,0,0-5,5V409.3a5,5,0,0,0,5,5h66.287V301.817Z"/><rect class="n" width="1.172" height="0.468" transform="translate(79.689 307.832)"/><path class="n" d="M211.258,408.285h-2v-.468h2c.107,0,.213,0,.317-.011l.03.468C211.491,408.282,211.376,408.285,211.258,408.285Zm-4.336,0h-2.334v-.468h2.334Zm-4.669,0H199.92v-.468h2.333Zm-4.669,0h-2.333v-.468h2.333Zm-4.668,0h-2.334v-.468h2.334Zm-4.668,0h-2.334v-.468h2.334Zm-4.669,0h-2.334v-.468h2.334Zm-4.667,0h-2.335v-.468h2.335Zm-4.671,0h-2.333v-.468h2.333Zm-4.666,0h-2.336v-.468h2.336Zm-4.669,0H162.57v-.468h2.336Zm-4.669,0H157.9v-.468h2.335Zm-4.669,0h-2.335v-.468h2.335Zm-4.669,0h-2.334v-.468H150.9Zm-4.669,0H143.9v-.468h2.333Zm-4.668,0h-2.334v-.468h2.334Zm-4.668,0h-2.335v-.468h2.335Zm-4.669,0h-2.334v-.468h2.334Zm-4.669,0h-2.334v-.468h2.334Zm-4.668,0h-2.334v-.468h2.334Zm-4.669,0h-2.334v-.468h2.334Zm-4.669,0h-2.334v-.468h2.334Zm-4.668,0h-2.334v-.468h2.334Zm-4.668,0H101.88v-.468h2.334Zm-4.668,0H97.211v-.468h2.335Zm-4.67,0H92.542v-.468h2.334Zm-4.668,0H87.874v-.468h2.334Zm-4.668,0H83.205v-.468H85.54Zm128.38-.726-.24-.4a4.826,4.826,0,0,0,1.588-1.529l.394.253A5.275,5.275,0,0,1,213.92,407.559Zm2.544-3.964-.466-.048a4.763,4.763,0,0,0,.024-.5v-1.814h.469v1.814C216.491,403.234,216.481,403.416,216.464,403.6Zm.027-4.691h-.469v-2.335h.469Zm0-4.669h-.469V391.9h.469Zm0-4.668h-.469v-2.336h.469Zm0-4.669h-.469v-2.335h.469Zm0-4.669h-.469V377.9h.469Zm0-4.669h-.469v-2.333h.469Zm0-4.668h-.469v-2.334h.469Zm0-4.668h-.469v-2.336h.469Zm0-4.669h-.469v-2.333h.469Zm0-4.669h-.469v-2.333h.469Zm0-4.667h-.469v-2.335h.469Zm0-4.668h-.469v-2.336h.469Zm0-4.671h-.469v-2.334h.469Zm0-4.668h-.469v-2.334h.469Zm0-4.669h-.469V331.21h.469Zm0-4.669h-.469v-2.333h.469Zm0-4.667h-.469v-2.335h.469Zm0-4.669h-.469V317.2h.469Zm0-4.668h-.469v-1.8a4.96,4.96,0,0,0-.025-.505l.465-.05a5.357,5.357,0,0,1,.029.555Zm-1.228-4.387a4.829,4.829,0,0,0-1.591-1.527l.238-.4a5.292,5.292,0,0,1,1.746,1.677Zm-3.7-2.174c-.1-.005-.2-.009-.308-.009h-2.011v-.468h2.011c.112,0,.224,0,.337.01Zm-4.653-.009h-2.335v-.468h2.335Zm-4.669,0h-2.335v-.468h2.335Zm-4.668,0H195.24v-.468h2.336Zm-4.669,0h-2.336v-.468h2.336Zm-4.669,0H185.9v-.468h2.335Zm-4.669,0h-2.334v-.468h2.334Zm-4.668,0h-2.335v-.468H178.9Zm-4.669,0H171.9v-.468h2.335Zm-4.668,0H167.23v-.468h2.334Zm-4.669,0h-2.333v-.468H164.9Zm-4.669,0h-2.333v-.468h2.333Zm-4.669,0h-2.333v-.468h2.333Zm-4.668,0h-2.334v-.468h2.334Zm-4.668,0h-2.334v-.468h2.334Zm-4.669,0h-2.334v-.468h2.334Zm-4.669,0h-2.334v-.468h2.334Zm-4.668,0h-2.334v-.468h2.334Zm-4.668,0h-2.335v-.468h2.335Zm-4.669,0h-2.334v-.468h2.334Zm-4.669,0h-2.334v-.468h2.334Zm-4.668,0h-2.334v-.468h2.334Zm-4.669,0h-2.334v-.468h2.334Zm-4.668,0h-2.335v-.468H104.2Zm-4.669,0H97.2v-.468h2.334Zm-4.668,0H92.532v-.468h2.335Zm-4.669,0H87.864v-.468H90.2Zm-4.668,0H83.2v-.468H85.53Z"/><rect class="n" width="1.172" height="0.469" transform="translate(79.689 407.817)"/><path class="k" d="M230.41,372.709a4.736,4.736,0,0,1-4.417,5H177.96a4.736,4.736,0,0,1-4.417-5V349.38a4.735,4.735,0,0,1,4.417-5h48.033a4.735,4.735,0,0,1,4.417,5Z"/><path class="b" d="M230.41,369.724c0,2.761-1.919,5-4.286,5H179.5c-2.368,0-4.288-2.238-4.288-5v-23.33c0-2.761,1.92-5,4.288-5h46.626c2.367,0,4.286,2.239,4.286,5Z"/><path class="n" d="M230.41,372.978h-2.343v-.468h2.343Zm-4.685,0h-2.343v-.468h2.343Zm-4.685,0H218.7v-.468h2.345Zm-4.687,0H214.01v-.468h2.343Zm-4.685,0h-2.343v-.468h2.343Zm-4.686,0H204.64v-.468h2.342Zm-4.685,0h-2.343v-.468H202.3Zm-4.687,0h-2.342v-.468h2.342Zm-4.685,0h-2.343v-.468h2.343Zm-4.685,0H185.9v-.468h2.343Zm-4.685,0h-1.289a3.6,3.6,0,0,1-1.109-.174l.143-.447a3.107,3.107,0,0,0,.966.153h1.289Zm-4.374-1.618a4.746,4.746,0,0,1-.891-2.268l.466-.056a4.249,4.249,0,0,0,.8,2.044Zm-.459-4.638h-.468v-2.343h.468Zm0-4.685h-.468v-2.343h.468Zm0-4.685h-.468v-2.343h.468Zm0-4.686h-.468v-2.343h.468Zm.042-4.652-.465-.064a4.729,4.729,0,0,1,.932-2.252l.37.287A4.253,4.253,0,0,0,178.764,348.014Zm2.6-3.268-.133-.45a3.636,3.636,0,0,1,1.03-.15h1.366v.468h-1.366A3.1,3.1,0,0,0,181.369,344.746Zm49.041-.132h-2.265v-.468h2.265Zm-4.608,0h-2.343v-.468H225.8Zm-4.685,0h-2.343v-.468h2.343Zm-4.685,0h-2.343v-.468h2.343Zm-4.687,0H209.4v-.468h2.342Zm-4.685,0h-2.343v-.468h2.343Zm-4.686,0h-2.342v-.468h2.342Zm-4.685,0h-2.343v-.468h2.343Zm-4.687,0h-2.341v-.468H193Zm-4.685,0h-2.343v-.468h2.343Z"/><path class="o" d="M203.1,357.642a9.1,9.1,0,1,1-9.1-9.1A9.1,9.1,0,0,1,203.1,357.642Z"/><g class="p"><rect class="q" width="31.48" height="6.981" transform="translate(177.881 365.291) rotate(-45)"/><rect class="q" width="31.48" height="2.315" transform="translate(184.041 371.45) rotate(-45.002)"/></g></g></svg>