<svg height="512" viewBox="0 0 512 512" width="512" xmlns="http://www.w3.org/2000/svg"><g id="flat"><path d="m328 352 117.955 65.531a60 60 0 0 1 30.259 43.969l3.786 26.5h-448l3.916-27.411a60 60 0 0 1 28.976-43.231l111.108-65.358z" fill="#eaeae8"/><path d="m152 200v-88a81.941 81.941 0 0 1 -24-57.941v-30.059l33.918 8.48a251.92 251.92 0 0 0 61.09 7.52h50.309a35.45 35.45 0 0 1 25.066 10.383l21.617 21.617a35.448 35.448 0 0 1 32.913 22.283 99.073 99.073 0 0 1 7.087 36.8v68.917z" fill="#683b0d"/><path d="m215.994 112a7.976 7.976 0 0 1 -3.572-.847l-17.689-8.844a33.7 33.7 0 0 1 -18.733-30.309 8 8 0 0 1 16 0 17.792 17.792 0 0 0 9.888 16l17.69 8.845a8 8 0 0 1 -3.584 15.155z" fill="#533222"/><path d="m255.994 112a7.976 7.976 0 0 1 -3.572-.847l-17.689-8.844a33.7 33.7 0 0 1 -18.733-30.309 8 8 0 0 1 16 0 17.792 17.792 0 0 0 9.888 16l17.69 8.845a8 8 0 0 1 -3.584 15.155z" fill="#533222"/><path d="m295.994 112a7.976 7.976 0 0 1 -3.572-.847l-17.689-8.844a33.7 33.7 0 0 1 -18.733-30.309 8 8 0 0 1 16 0 17.792 17.792 0 0 0 9.888 16l17.69 8.845a8 8 0 0 1 -3.584 15.155z" fill="#533222"/><path d="m296 328-8-16h-64l-8 16-8 8 48 40 48-38.4z" fill="#fdc9a6"/><path d="m294.36 324.73a70.918 70.918 0 0 1 -76.72 0l6.36-12.73h64z" fill="#e6af89"/><path d="m256 320a70.9 70.9 0 0 1 -65.827-44.567 198.156 198.156 0 0 1 -14.173-73.596v-57.837l24-40h112l24 40v57.837a198.156 198.156 0 0 1 -14.173 73.6 70.9 70.9 0 0 1 -65.827 44.563z" fill="#fdc9a6"/><g fill="#683b0d"><path d="m304 176h-24a8 8 0 0 1 0-16h24a8 8 0 0 1 0 16z"/><circle cx="290" cy="194" r="10"/><path d="m232 176h-24a8 8 0 0 1 0-16h24a8 8 0 0 1 0 16z"/><circle cx="222" cy="194" r="10"/></g><path d="m247.994 272a8 8 0 0 1 -1.934-15.763l32-8a8 8 0 0 1 3.88 15.522l-32 8a8.007 8.007 0 0 1 -1.946.241z" fill="#e6af89"/><path d="m264 240h-16a8 8 0 0 1 -8-8v-24a8 8 0 0 1 16 0v16h8a8 8 0 0 1 0 16z" fill="#e6af89"/><path d="m176 168h-11.056a20.944 20.944 0 0 0 -20.944 20.944v14.112a20.944 20.944 0 0 0 2.211 9.366 20.944 20.944 0 0 0 18.733 11.578h19.056z" fill="#fdc9a6"/><path d="m336 168h11.056a20.944 20.944 0 0 1 20.944 20.944v14.112a20.944 20.944 0 0 1 -2.211 9.366 20.944 20.944 0 0 1 -18.733 11.578h-19.056z" fill="#fdc9a6"/><path d="m72 488v-32a8 8 0 0 1 16 0v32z" fill="#cbcbcb"/><path d="m424 488v-32a8 8 0 0 1 16 0v32z" fill="#cbcbcb"/><path d="m272 416h-32l-16-48 32 8 32-8z" fill="#0a9acd"/><path d="m240 416-8 72h48l-8-72z" fill="#0a9acd"/><path d="m273.78 432h-35.56l1.78-16h32z" fill="#0a9acd"/><path d="m400 464h-64a8 8 0 0 1 0-16h64a8 8 0 0 1 0 16z" fill="#cbcbcb"/><path d="m208 328 48 48-48 24-32-48z" fill="#cbcbcb"/><path d="m304 400-48-24 48-48 24 24z" fill="#cbcbcb"/><path d="m273.78 432h-35.56l1.78-16h32z" fill="#026ca2"/></g></svg>