<svg id="Capa_1" enable-background="new 0 0 512 512" height="512" viewBox="0 0 512 512" width="512" xmlns="http://www.w3.org/2000/svg"><g><path d="m256 382.354 185.629 49.929c43.608-45.906 70.371-107.968 70.371-176.283 0-141.385-114.615-256-256-256s-256 114.615-256 256c0 68.315 26.763 130.377 70.371 176.283z" fill="#6aa8ff"/><path d="m153.111 200.113 54.578 54.578-16.603 16.603 128.037 128.037 122.505 32.951c40.419-42.549 66.35-98.982 69.929-161.405l-189.002-189.001z" fill="#2681ff"/><path d="m256 450.176 28.966-60.031-28.966-65.146-71.997-20.195-83.085 32.88c-18.417 7.169-30.546 24.907-30.546 44.67v49.929c16.366 17.229 35.113 32.17 55.702 44.323z" fill="#ce5668"/><path d="m411.083 337.683-83.075-32.046-72.008 19.362v125.177l129.937 26.424c20.584-12.152 39.328-27.091 55.692-44.317v-49.929c0-19.764-12.129-37.501-30.546-44.671z" fill="#c73c50"/><path d="m385.937 372.058h-129.932l-.005.016-8.148 82.09 8.148 57.836c47.435 0 91.847-12.914 129.937-35.401z" fill="#fd5"/><path d="m275.426 302.848-19.42-13.282-57.932 9.669-14.071 5.568c18.338 19.028 43.489 32.594 72.003 32.594z" fill="#00ed89"/><path d="m313.937 300.211-57.932-10.644v47.846c27.911 0 53.747-13.448 72.003-31.774z" fill="#00dc80"/><path d="m126.073 476.605c38.088 22.483 82.496 35.395 129.927 35.395h.005v-139.942h-129.932z" fill="#ffea98"/><g><path d="m238.77 382.354h17.238l3.928 24.767-3.928 24.767h-17.238z" fill="#f5f5f8"/><path d="m256.008 382.354h17.238v49.534h-17.238z" fill="#e2e2eb"/></g><path d="m159.902 145.015c-.077 1.583-.11 3.275-.11 4.877v50.255c0 53.137 43.076 96.214 96.214 96.214l47.055-96.214-47.052-64.758z" fill="#d5985c"/><path d="m256.005 135.115v161.246c53.137 0 96.214-43.076 96.214-96.214v-50.255c0-1.602-.028-3.294-.105-4.877z" fill="#c38858"/><path d="m198.074 214.337v84.898c14.754 15.31 35.455 24.849 58.396 24.849.061 0 .122-.005.183-.005l36.997-66.98-37.645-42.762z" fill="#ffbda9"/><path d="m313.937 214.337h-57.932v109.735c.156.001.309.012.465.012 22.456 0 42.779-9.128 57.467-23.873z" fill="#f9a58d"/><path d="m256.008 64.571c-48.367 0-87.577 39.209-87.577 87.577v20.595c-1.219-.291-2.484-.461-3.791-.461-9.004 0-16.304 7.299-16.304 16.304s7.299 16.304 16.304 16.304c1.394 0 2.739-.194 4.03-.523 3.314 45.344 41.149 81.103 87.338 81.103l42.831-87.577v-45.744z" fill="#ffccbd"/><path d="m256.008 64.571v220.898c48.367 0 87.577-39.209 87.577-87.577v-45.744c0-48.368-39.21-87.577-87.577-87.577z" fill="#ffbda9"/><g><circle cx="216.783" cy="184.947" fill="#606074" r="8.95"/><circle cx="295.228" cy="184.947" fill="#454553" r="8.95"/></g><path d="m256.005 239.535c-5.785 0-11.182-3.115-14.084-8.13l-12.982 7.513c5.574 9.633 15.946 15.618 27.066 15.618l10.001-7.968z" fill="#ce5668"/><path d="m283.072 238.917-12.983-7.513c-2.902 5.015-8.298 8.131-14.083 8.131v15c11.12 0 21.492-5.984 27.066-15.618z" fill="#c73c50"/><g><path d="m256.008 61.395c-82.641 1.205-91.366 80.583-91.366 80.583v24.54l91.366-24.177 10.001-43.85z" fill="#d5985c"/><path d="m257.902 61.367c-.64 0-1.263.019-1.894.028v80.945l91.365 24.177v-21.888s-5.055-83.262-89.471-83.262z" fill="#c38858"/></g><circle cx="347.371" cy="188.585" fill="#ffbda9" r="16.304"/><g><g><path d="m279.028 102.295-23.02-47.069c-51.003 0-92.742 39.639-96.106 89.79l96.106-9.715z" fill="#ce5668"/><path d="m352.114 145.015c-3.364-50.151-45.103-89.79-96.106-89.79v80.075z" fill="#c73c50"/></g><g><path d="m265.946 93.306-9.938 19.875c-10.977 0-19.875-8.899-19.875-19.875s8.899-19.875 19.875-19.875z" fill="#2681ff"/><path d="m275.883 93.306c0 10.977-8.898 19.875-19.875 19.875v-39.75c10.977 0 19.875 8.898 19.875 19.875z" fill="#005fe0"/></g><g><path d="m275.974 128.457-19.966-27.018c-38.317 0-72.682 16.87-96.106 43.577h96.106z" fill="#00ed89"/><path d="m352.114 145.015c-23.424-26.706-57.789-43.577-96.106-43.577v43.577z" fill="#00dc80"/></g></g></g></svg>