<svg xmlns="http://www.w3.org/2000/svg" width="8.668" height="12.295" viewBox="0 0 8.668 12.295"><g transform="translate(-730.689 -448.851)"><path d="M738.724,451.5h-.92a2.891,2.891,0,0,0-.54-1.418h1.46a.615.615,0,1,0,0-1.229h-7.4a.615.615,0,1,0,0,1.229h2.807a2.037,2.037,0,0,1,2.059,1.418h-4.866a.633.633,0,0,0,0,1.266h4.8a2.225,2.225,0,0,1-2.261,1.285h-2a.618.618,0,0,0,0,1.235h.725l.009,0h1.146c1.244.047,1.8.587,2.115,2.064.249,1.1.431,1.811.575,2.238a3.088,3.088,0,0,0,.691,1.349.744.744,0,0,0,1.082-1.02l0-.01a17.728,17.728,0,0,1-.837-2.984,2.864,2.864,0,0,0-1.518-2.213,2.952,2.952,0,0,0,1.853-1.946h1.017a.633.633,0,0,0,0-1.266Zm0,0"/></g></svg>